<?xml version="1.0" encoding="UTF-8" standalone="no"?>
<svg
   xmlns:dc="http://purl.org/dc/elements/1.1/"
   xmlns:cc="http://creativecommons.org/ns#"
   xmlns:rdf="http://www.w3.org/1999/02/22-rdf-syntax-ns#"
   xmlns:svg="http://www.w3.org/2000/svg"
   xmlns="http://www.w3.org/2000/svg"
   xmlns:sodipodi="http://sodipodi.sourceforge.net/DTD/sodipodi-0.dtd"
   xmlns:inkscape="http://www.inkscape.org/namespaces/inkscape"
   inkscape:version="1.0 (4035a4fb49, 2020-05-01)"
   height="74.982002"
   width="80"
   sodipodi:docname="icon.svg"
   id="svg16"
   xml:space="preserve"
   enable-background="new 0 0 96 96"
   viewBox="0 0 80 74.982002"
   y="0px"
   x="0px"
   version="1.1"><metadata
     id="metadata22"><rdf:RDF><cc:Work
         rdf:about=""><dc:format>image/svg+xml</dc:format><dc:type
           rdf:resource="http://purl.org/dc/dcmitype/StillImage" /><dc:title></dc:title></cc:Work></rdf:RDF></metadata><defs
     id="defs20" /><sodipodi:namedview
     inkscape:current-layer="svg16"
     inkscape:window-maximized="1"
     inkscape:window-y="-8"
     inkscape:window-x="-8"
     inkscape:cy="37.491"
     inkscape:cx="40"
     inkscape:zoom="4.5666667"
     fit-margin-bottom="0"
     fit-margin-right="0"
     fit-margin-left="0"
     fit-margin-top="0"
     showgrid="false"
     id="namedview18"
     inkscape:window-height="715"
     inkscape:window-width="1366"
     inkscape:pageshadow="2"
     inkscape:pageopacity="0"
     guidetolerance="10"
     gridtolerance="10"
     objecttolerance="10"
     borderopacity="1"
     bordercolor="#666666"
     pagecolor="#ffffff" /><g
     transform="translate(-8,-10.509)"
     id="g10"><path
       id="path2"
       d="M 82.932,46.185 C 81.975,26.386 65.465,10.509 45.492,10.509 24.818,10.509 8,27.327 8,48 c 0,20.673 16.818,37.491 37.491,37.491 8.151,0 15.867,-2.643 22.184,-7.298 H 56.317 v -0.077 c -3.431,1.242 -7.085,1.918 -10.826,1.918 -17.662,0 -32.032,-14.37 -32.032,-32.033 0,-17.662 14.37,-32.031 32.032,-32.031 16.971,0 31.023,13.427 31.974,30.215 H 72.214 L 80.072,58.328 88,46.185 Z" /><path
       id="path4"
       d="m 60.176,76.425 h 9.715 c 1.387,-1.195 2.69,-2.494 3.899,-3.893 h -7.77 c -1.803,1.509 -3.763,2.814 -5.844,3.893 z" /><path
       id="path6"
       d="m 67.984,70.763 h 7.241 c 0.942,-1.232 1.814,-2.53 2.61,-3.892 H 71.33 c -1.019,1.391 -2.133,2.696 -3.346,3.892 z" /><path
       id="path8"
       d="m 73.228,63.994 c -0.22,0.378 -0.458,0.741 -0.691,1.107 h 6.294 l 0.952,-1.814 h -6.146 z" /></g><g
     style="fill:#c87137"
     transform="matrix(0.41632175,0,0,0.39418239,14.200207,14.962182)"
     id="g868"><path
       style="fill:#c87137"
       id="path4-1"
       d="m 80.12221,91.313465 c 0.864,-0.864 1.67889,-1.767 2.44214,-2.69921 a 3.81376,3.81376 0 0 0 -0.2525,-5.10761 7.26744,7.26744 0 0 0 -3.8689,-2.01416 c -10.73926,-1.92108 -18.65228,-8.51105 -18.65228,-16.34082 0,-7.82977 7.913,-14.41962 18.65228,-16.3407 a 7.26762,7.26762 0 0 0 3.8689,-2.01428 3.81358,3.81358 0 0 0 0.2525,-5.10748 q -1.14487,-1.39884 -2.44226,-2.69916 a 37.00309,37.00309 0 1 0 1.2e-4,52.32342 z M 63.6559,35.844785 a 4.95026,4.95026 0 1 1 -4.95019,4.95031 4.95032,4.95032 0 0 1 4.95019,-4.95031 z m 0,48.71313 a 4.95038,4.95038 0 1 1 -4.95019,4.95032 4.95052,4.95052 0 0 1 4.95019,-4.95032 z m -17.601,6.95392 a 6.3588,6.3588 0 1 1 6.35864,-6.35889 6.35863,6.35863 0 0 1 -6.35865,6.35889 z m 0,-52.72022 a 6.35877,6.35877 0 1 1 -6.35864,6.35871 6.35885,6.35885 0 0 1 6.35863,-6.35866 z m -12.45655,17.3913 a 8.96887,8.96887 0 1 1 -8.968939,8.96875 8.96877,8.96877 0 0 1 8.968939,-8.96875 z" /><path
       style="fill:#c87137"
       id="path6-4"
       d="m 104.38234,71.220145 a 355.62913,355.62913 0 0 1 -0.29791,-49.29828 14.02194,14.02194 0 0 0 -1.22608,-6.69281 c -0.83422,-1.66144 -2.1347,-3.07708 -3.87445,-3.07739 -1.73962,0 -3.03961,1.41541 -3.87323,3.07666 a 14.019,14.019 0 0 0 -1.22381,6.69263 355.62688,355.62688 0 0 1 -0.2807,49.29828 z" /><path
       style="fill:#c87137"
       id="path8-3"
       d="m 91.00313,81.754205 c -0.0053,8.83783 7.98523,12.92798 7.98077,20.397455 2.80561,-3.210445 7.99988,-11.579215 8.00507,-20.416995 a 12.04707,12.04707 0 0 0 -2.5293,-7.615 l -10.90582,-0.001 a 12.077,12.077 0 0 0 -2.55072,7.63554 z" /></g></svg>
