<?xml version="1.0" encoding="UTF-8" standalone="no"?>
<svg
   xmlns:dc="http://purl.org/dc/elements/1.1/"
   xmlns:cc="http://creativecommons.org/ns#"
   xmlns:rdf="http://www.w3.org/1999/02/22-rdf-syntax-ns#"
   xmlns:svg="http://www.w3.org/2000/svg"
   xmlns="http://www.w3.org/2000/svg"
   xmlns:sodipodi="http://sodipodi.sourceforge.net/DTD/sodipodi-0.dtd"
   xmlns:inkscape="http://www.inkscape.org/namespaces/inkscape"
   version="1.1"
   x="0px"
   y="0px"
   viewBox="0 0 75.275002 75.275001"
   enable-background="new 0 0 96 96"
   xml:space="preserve"
   id="svg16"
   sodipodi:docname="help.svg"
   width="75.275002"
   height="75.275002"
   inkscape:version="1.0 (4035a4fb49, 2020-05-01)"><metadata
     id="metadata22"><rdf:RDF><cc:Work
         rdf:about=""><dc:format>image/svg+xml</dc:format><dc:type
           rdf:resource="http://purl.org/dc/dcmitype/StillImage" /><dc:title></dc:title></cc:Work></rdf:RDF></metadata><defs
     id="defs20"><linearGradient
       id="c"
       gradientTransform="matrix(0.9837838,0,0,1,-0.08939,0.094531)"
       gradientUnits="userSpaceOnUse"
       x1="5.0081878"
       x2="0.89769697"
       y1="281.89978"
       y2="280.76587"><stop
         offset="0"
         stop-color="#fce94f"
         id="stop12" /><stop
         offset="1"
         stop-color="#fce94f"
         stop-opacity=".257426"
         id="stop14" /></linearGradient><linearGradient
       id="d"
       gradientTransform="matrix(0.98378379,0,0,1,-0.08939,3.004935)"
       gradientUnits="userSpaceOnUse"
       x1="5.0081878"
       x2="0.89769697"
       y1="281.89978"
       y2="280.76587"><stop
         offset="0"
         stop-color="#729ece"
         id="stop17" /><stop
         offset="1"
         stop-color="#729ece"
         stop-opacity=".514852"
         id="stop19" /></linearGradient><linearGradient
       id="e"
       gradientTransform="matrix(0.98378379,0,0,1,-0.08939,5.915352)"
       gradientUnits="userSpaceOnUse"
       x1="5.0081878"
       x2="0.89769697"
       y1="281.89978"
       y2="280.76587"><stop
         offset="0"
         stop-color="#ec2d27"
         id="stop22" /><stop
         offset="1"
         stop-color="#ef2929"
         stop-opacity=".445545"
         id="stop24" /></linearGradient><linearGradient
       id="a"
       gradientTransform="rotate(43.47495,8.3343763,288.28166)"
       gradientUnits="userSpaceOnUse"
       x1="11.125094"
       x2="6.481286"
       y1="286.60989"
       y2="286.00851"><stop
         offset="0"
         stop-color="#bf7b10"
         id="stop2" /><stop
         offset="1"
         stop-color="#e8b86d"
         id="stop4" /></linearGradient><linearGradient
       id="b"
       gradientTransform="rotate(43.47495,8.3343763,288.28166)"
       gradientUnits="userSpaceOnUse"
       x1="11.509375"
       x2="5.2471309"
       y1="294.75101"
       y2="291.61029"><stop
         offset="0"
         stop-color="#e2af61"
         id="stop7" /><stop
         offset="1"
         stop-color="#f1d8b2"
         id="stop9" /></linearGradient></defs><sodipodi:namedview
     inkscape:document-rotation="0"
     pagecolor="#ffffff"
     bordercolor="#666666"
     borderopacity="1"
     objecttolerance="10"
     gridtolerance="10"
     guidetolerance="10"
     inkscape:pageopacity="0"
     inkscape:pageshadow="2"
     inkscape:window-width="1366"
     inkscape:window-height="715"
     id="namedview18"
     showgrid="false"
     fit-margin-top="0"
     fit-margin-left="0"
     fit-margin-right="0"
     fit-margin-bottom="0"
     inkscape:zoom="4.5666667"
     inkscape:cx="39.927008"
     inkscape:cy="37.098789"
     inkscape:window-x="-8"
     inkscape:window-y="-8"
     inkscape:window-maximized="1"
     inkscape:current-layer="svg16" /><g
     transform="matrix(4.6497677,0,0,5.2771258,-0.20256071,-7.6390478)"
     id="g903"><g
       id="g33"
       transform="matrix(0.81317949,0.35395959,-0.39866173,0.91709757,115.33282,-254.91076)"
       stroke-width="1.06186"
       fill-rule="evenodd"><path
         style="fill:url(#c)"
         id="path27"
         fill="url(#c)"
         d="M 0.79374999,280.86041 H 11.1125 v 2.91042 H 0.79374999 Z" /><path
         style="fill:url(#d)"
         id="path29"
         fill="url(#d)"
         d="M 0.79374999,283.77081 H 11.1125 v 2.91042 H 0.79374999 Z" /><path
         style="fill:url(#e)"
         id="path31"
         fill="url(#e)"
         d="M 0.79374999,286.68124 H 11.1125 v 2.91042 H 0.79374999 Z" /></g><g
       id="g55"
       transform="translate(2.929149,-280.53119)"
       stroke="#976009"><path
         style="fill:url(#a)"
         id="path35"
         stroke-width="0.264583"
         fill-rule="evenodd"
         fill="url(#a)"
         d="m 7.3488466,288.29569 4.3540224,-4.76315 c 0.638058,-0.67296 1.848869,0.4389 1.192763,1.1309 l -4.5245605,4.60145 c 1.9744655,1.87206 1.4540054,2.04932 0.7239703,2.81929 l -4.6000124,-4.36142 c 0.7301315,-0.77008 0.91071,-1.2694 2.8538172,0.57293 z" /><path
         style="fill:url(#b)"
         id="path37"
         stroke-width="0.264583"
         fill-rule="evenodd"
         fill="url(#b)"
         d="m 4.4918833,287.71977 -2.9126893,3.07203 4.608038,4.36903 2.9126892,-3.07202 z" /><g
         id="g53"
         stroke-width="0.132292"
         fill="none"><path
           id="path39"
           d="m 4.9764608,288.36233 -2.7298623,2.8792" /><path
           id="path41"
           d="m 5.5524655,288.90846 -2.7298622,2.8792" /><path
           id="path43"
           d="m 6.1284703,289.45459 -2.7298622,2.8792" /><path
           id="path45"
           d="m 6.704475,290.00072 -2.7298622,2.8792" /><path
           id="path47"
           d="m 7.2804797,290.54685 -2.7298622,2.8792" /><path
           id="path49"
           d="m 7.8569042,291.09254 -2.7306467,2.88002" /><path
           id="path51"
           d="m 8.4332737,291.63828 -2.73064,2.88002" /></g></g></g><g
     transform="matrix(3.1065248,0,0,3.0837343,0.48175195,0.48175214)"
     stroke="none"
     stroke-width="1"
     fill="none"
     fill-rule="evenodd"
     id="g14"><g
       id="g12"><rect
         x="0"
         y="0"
         width="24"
         height="24"
         id="rect6" /><path
         d="m 12,3.5 c -4.694868,0 -8.5,3.8048129 -8.5,8.5 0,4.694868 3.8048129,8.5 8.5,8.5 4.694868,0 8.5,-3.804813 8.5,-8.5 C 20.5,7.305132 16.695187,3.5 12,3.5 Z M 12,2 C 17.524062,2 22,6.4771525 22,12 22,17.524062 17.522847,22 12,22 6.4759382,22 2,17.522847 2,12 2,6.4759382 6.4771525,2 12,2 Z"
         fill="#000000"
         fill-rule="nonzero"
         id="path8" /><path
         d="m 12.5,14 c 0,0.414214 -0.335786,0.75 -0.75,0.75 C 11.335786,14.75 11,14.414214 11,14 v -0.378975 c 0,-1.084003 0.493319,-1.646053 1.581926,-2.280174 -0.02747,0.016 0.318124,-0.183552 0.40869,-0.237608 C 13.909131,10.555019 14.25,10.079095 14.25,8.9781681 c 0,-1.238798 -0.862233,-2.0357143 -2.5,-2.0357143 -1.497396,0 -2.5,1.1592559 -2.5,2.5 0,0.4142136 -0.3357864,0.7500002 -0.75,0.7500002 -0.4142136,0 -0.75,-0.3357866 -0.75,-0.7500002 0,-2.1247015 1.6218868,-4 4,-4 2.440954,0 4,1.4409447 4,3.5357143 0,1.6987619 -0.658307,2.6178939 -1.990616,3.4130959 -0.101535,0.0606 -0.458727,0.266852 -0.422451,0.245721 C 12.663756,13.029116 12.5,13.215687 12.5,13.621025 Z m -0.8,4 c -0.552285,0 -1,-0.447715 -1,-1 0,-0.552285 0.447715,-1 1,-1 0.552285,0 1,0.447715 1,1 0,0.552285 -0.447715,1 -1,1 z"
         fill="#000000"
         fill-rule="nonzero"
         id="path10" /></g></g></svg>
