<?xml version="1.0" encoding="UTF-8" standalone="no"?>
<svg
   xmlns:dc="http://purl.org/dc/elements/1.1/"
   xmlns:cc="http://creativecommons.org/ns#"
   xmlns:rdf="http://www.w3.org/1999/02/22-rdf-syntax-ns#"
   xmlns:svg="http://www.w3.org/2000/svg"
   xmlns="http://www.w3.org/2000/svg"
   xmlns:sodipodi="http://sodipodi.sourceforge.net/DTD/sodipodi-0.dtd"
   xmlns:inkscape="http://www.inkscape.org/namespaces/inkscape"
   inkscape:version="1.0 (4035a4fb49, 2020-05-01)"
   height="75.275002"
   width="75.275002"
   sodipodi:docname="icon.svg"
   id="svg16"
   xml:space="preserve"
   enable-background="new 0 0 96 96"
   viewBox="0 0 75.275002 75.275001"
   y="0px"
   x="0px"
   version="1.1"><metadata
     id="metadata22"><rdf:RDF><cc:Work
         rdf:about=""><dc:format>image/svg+xml</dc:format><dc:type
           rdf:resource="http://purl.org/dc/dcmitype/StillImage" /><dc:title></dc:title></cc:Work></rdf:RDF></metadata><defs
     id="defs20"><linearGradient
       y2="280.76587"
       y1="281.89978"
       x2="0.89769697"
       x1="5.0081878"
       gradientUnits="userSpaceOnUse"
       gradientTransform="matrix(0.9837838,0,0,1,-0.08939,0.094531)"
       id="c"><stop
         id="stop12"
         stop-color="#fce94f"
         offset="0" /><stop
         id="stop14"
         stop-opacity=".257426"
         stop-color="#fce94f"
         offset="1" /></linearGradient><linearGradient
       y2="280.76587"
       y1="281.89978"
       x2="0.89769697"
       x1="5.0081878"
       gradientUnits="userSpaceOnUse"
       gradientTransform="matrix(0.98378379,0,0,1,-0.08939,3.004935)"
       id="d"><stop
         id="stop17"
         stop-color="#729ece"
         offset="0" /><stop
         id="stop19"
         stop-opacity=".514852"
         stop-color="#729ece"
         offset="1" /></linearGradient><linearGradient
       y2="280.76587"
       y1="281.89978"
       x2="0.89769697"
       x1="5.0081878"
       gradientUnits="userSpaceOnUse"
       gradientTransform="matrix(0.98378379,0,0,1,-0.08939,5.915352)"
       id="e"><stop
         id="stop22"
         stop-color="#ec2d27"
         offset="0" /><stop
         id="stop24"
         stop-opacity=".445545"
         stop-color="#ef2929"
         offset="1" /></linearGradient><linearGradient
       y2="286.00851"
       y1="286.60989"
       x2="6.481286"
       x1="11.125094"
       gradientUnits="userSpaceOnUse"
       gradientTransform="rotate(43.47495,8.3343763,288.28166)"
       id="a"><stop
         id="stop2"
         stop-color="#bf7b10"
         offset="0" /><stop
         id="stop4"
         stop-color="#e8b86d"
         offset="1" /></linearGradient><linearGradient
       y2="291.61029"
       y1="294.75101"
       x2="5.2471309"
       x1="11.509375"
       gradientUnits="userSpaceOnUse"
       gradientTransform="rotate(43.47495,8.3343763,288.28166)"
       id="b"><stop
         id="stop7"
         stop-color="#e2af61"
         offset="0" /><stop
         id="stop9"
         stop-color="#f1d8b2"
         offset="1" /></linearGradient></defs><sodipodi:namedview
     inkscape:current-layer="svg16"
     inkscape:window-maximized="1"
     inkscape:window-y="-8"
     inkscape:window-x="-8"
     inkscape:cy="37.098789"
     inkscape:cx="39.927008"
     inkscape:zoom="4.5666667"
     fit-margin-bottom="0"
     fit-margin-right="0"
     fit-margin-left="0"
     fit-margin-top="0"
     showgrid="false"
     id="namedview18"
     inkscape:window-height="969"
     inkscape:window-width="1680"
     inkscape:pageshadow="2"
     inkscape:pageopacity="0"
     guidetolerance="10"
     gridtolerance="10"
     objecttolerance="10"
     borderopacity="1"
     bordercolor="#666666"
     pagecolor="#ffffff"
     inkscape:document-rotation="0" /><g
     id="g903"
     transform="matrix(4.6497677,0,0,5.2771258,-0.20256071,-7.6390478)"><g
       fill-rule="evenodd"
       stroke-width="1.06186"
       transform="matrix(0.81317949,0.35395959,-0.39866173,0.91709757,115.33282,-254.91076)"
       id="g33"><path
         d="M 0.79374999,280.86041 H 11.1125 v 2.91042 H 0.79374999 Z"
         fill="url(#c)"
         id="path27"
         style="fill:url(#c)" /><path
         d="M 0.79374999,283.77081 H 11.1125 v 2.91042 H 0.79374999 Z"
         fill="url(#d)"
         id="path29"
         style="fill:url(#d)" /><path
         d="M 0.79374999,286.68124 H 11.1125 v 2.91042 H 0.79374999 Z"
         fill="url(#e)"
         id="path31"
         style="fill:url(#e)" /></g><g
       stroke="#976009"
       transform="translate(2.929149,-280.53119)"
       id="g55"><path
         d="m 7.3488466,288.29569 4.3540224,-4.76315 c 0.638058,-0.67296 1.848869,0.4389 1.192763,1.1309 l -4.5245605,4.60145 c 1.9744655,1.87206 1.4540054,2.04932 0.7239703,2.81929 l -4.6000124,-4.36142 c 0.7301315,-0.77008 0.91071,-1.2694 2.8538172,0.57293 z"
         fill="url(#a)"
         fill-rule="evenodd"
         stroke-width="0.264583"
         id="path35"
         style="fill:url(#a)" /><path
         d="m 4.4918833,287.71977 -2.9126893,3.07203 4.608038,4.36903 2.9126892,-3.07202 z"
         fill="url(#b)"
         fill-rule="evenodd"
         stroke-width="0.264583"
         id="path37"
         style="fill:url(#b)" /><g
         fill="none"
         stroke-width="0.132292"
         id="g53"><path
           d="m 4.9764608,288.36233 -2.7298623,2.8792"
           id="path39" /><path
           d="m 5.5524655,288.90846 -2.7298622,2.8792"
           id="path41" /><path
           d="m 6.1284703,289.45459 -2.7298622,2.8792"
           id="path43" /><path
           d="m 6.704475,290.00072 -2.7298622,2.8792"
           id="path45" /><path
           d="m 7.2804797,290.54685 -2.7298622,2.8792"
           id="path47" /><path
           d="m 7.8569042,291.09254 -2.7306467,2.88002"
           id="path49" /><path
           d="m 8.4332737,291.63828 -2.73064,2.88002"
           id="path51" /></g></g></g><g
     id="g10"
     transform="matrix(0.9409375,0,0,1.0039076,-7.5275,-10.550065)"><path
       d="M 82.932,46.185 C 81.975,26.386 65.465,10.509 45.492,10.509 24.818,10.509 8,27.327 8,48 c 0,20.673 16.818,37.491 37.491,37.491 8.151,0 15.867,-2.643 22.184,-7.298 H 56.317 v -0.077 c -3.431,1.242 -7.085,1.918 -10.826,1.918 -17.662,0 -32.032,-14.37 -32.032,-32.033 0,-17.662 14.37,-32.031 32.032,-32.031 16.971,0 31.023,13.427 31.974,30.215 H 72.214 L 80.072,58.328 88,46.185 Z"
       id="path2" /><path
       d="m 60.176,76.425 h 9.715 c 1.387,-1.195 2.69,-2.494 3.899,-3.893 h -7.77 c -1.803,1.509 -3.763,2.814 -5.844,3.893 z"
       id="path4" /><path
       d="m 67.984,70.763 h 7.241 c 0.942,-1.232 1.814,-2.53 2.61,-3.892 H 71.33 c -1.019,1.391 -2.133,2.696 -3.346,3.892 z"
       id="path6" /><path
       d="m 73.228,63.994 c -0.22,0.378 -0.458,0.741 -0.691,1.107 h 6.294 l 0.952,-1.814 h -6.146 z"
       id="path8" /></g></svg>
